<?xml version="1.0" encoding="UTF-8"?>
<svg id="Layer_2" data-name="Layer 2" xmlns="http://www.w3.org/2000/svg" viewBox="0 0 430.28 272.36">
  <defs>
    <style>
      .cls-1 {
        fill: #fff;
      }
    </style>
  </defs>
  <g id="Layer_1-2" data-name="Layer 1">
    <g>
      <path class="cls-1" d="M130.46,227.03c2.3-1.67,4.13-.78,6.12,.62,15.3,10.71,32.27,17.49,50.58,20.92,5.73,1.07,11.57,1.59,17.37,2.25,4.43,.5,8.44,1.6,10.57,6.46,2.5-5.41,7.05-6.12,11.9-6.52,24.27-1.99,46.73-9.26,66.82-23.24,1.98-1.38,3.78-2.04,5.96-.51,1.06-1.66,2.03-3.24,3.07-4.78,1.2-1.79,3.01-2.05,5.39-1.75,3.25-2.84,6.69-5.83,9.99-8.71-.54-4.52,1.94-7.36,4.19-10.25,2.22-2.86,4.6-5.59,6.84-8.43,1.04-1.32,1.92-2.76,2.97-4.31,2.13,1.3,4.35,2.65,7.09,4.32-.25-3.78-.49-7.05-.66-10.32-.11-2.05-.32-4.12-.12-6.14,.42-4.11,2.66-7.02,6.44-8.72,.66-.29,1.34-.52,2.29-.89-.18-2.16-.28-4.36-.56-6.54-.78-5.94,.33-8.03,5.75-10.53,.15-.07,.27-.22,.46-.38-.49-2.52-.95-5.06-1.49-7.58-1.07-5-.05-9.23,4.62-12.25-.56-2.15-.97-4.34-1.69-6.43-1.83-5.28-.9-10.23,1.58-15.01,2.56-4.92,6.08-9.08,10.48-12.75,6.44,5.37,11.73,11.35,13.63,19.95,1.41-1.24,2.66-2.34,4.14-3.63,6.44,7.08,10.93,14.82,9.96,25.14,1.98-1.32,3.7-2.46,5.54-3.69,4.32,5.18,7.38,10.84,8.25,17.47,.91,6.9-1.65,12.62-6.68,17.43,6.85-.49,13.45-.97,20.05-1.44,.1,.18,.21,.36,.31,.54-6.02,5.32-6.85,13.15-10.13,20.09,4.3,.33,7.01,3.36,10.2,5.57,2.11,1.46,4.35,2.74,6.51,4.09-3.8,3.9-6.59,5.1-15.03,6.41,1.09,2.1,2.19,4.19,3.37,6.46,9.14,4.01,11.63,6.75,13.48,15.07-2.55,0-5.08-.17-7.57,.05-2.47,.22-4.9,.82-7.45,1.55,11.05,4.31,16.49,11.89,15.03,23.6-2.92-1.37-5.82-2.77-8.76-4.08-.68-.3-1.5-.28-2.66-.48,.46,.67,.71,1.03,.96,1.38,2.54,3.49,3.04,7.26,1.52,11.3-.97,2.59-2.69,4.44-5.44,5.1-2.44,.58-4.13,1.88-5.32,4.16-3.02,5.78-10.93,4.97-15,1.02-.41-.4-.6-1.03-.89-1.56l-.58,.44c-.64,1.55-1.27,3.09-2,4.85-.71-1.77-1.35-3.38-2.05-5.12-3.37,2.35-6.61,2.14-9.65,.04-3.17-2.19-3.1-5.46-2.33-8.93-2.38-1.52-3.82-3.74-4.39-6.63-3.83,1.6-6.88-.71-10.15-1.69-9.75,5.86-20.28,8.95-31.57,9.46-4.51,4.57-10.33,6.01-16.38,6.81-7,.92-13.96,.44-20.87-.95-.64-.13-1.46,.02-2.05,.33-4.64,2.44-9.58,3.54-14.8,3.54-41.79,0-83.58,0-125.37,0-5.1,0-9.9-1.16-14.45-3.49-.67-.34-1.62-.42-2.38-.28-9.24,1.66-18.45,2.08-27.59-.6-3.5-1.03-6.79-2.52-9.31-5.35-11.3-.49-21.83-3.58-31.62-9.45-3.24,.91-6.29,3.28-10.2,1.65-.53,2.86-1.92,5.1-4.34,6.63,.78,3.57,.82,6.93-2.6,9.12-2.99,1.91-6.11,2.07-9.4-.21-.67,1.68-1.29,3.26-2.03,5.13-.73-1.75-1.38-3.31-2.09-5.03-.62,.57-1.12,1.05-1.65,1.52-2.59,2.29-5.63,3.2-9.05,2.76-2.89-.37-4.81-2.11-6.08-4.61-.84-1.67-2.06-2.85-3.9-3.2-7.82-1.47-8.93-11.38-5.38-16.16,.35-.47,.68-.96,1.24-1.75-4.54,.17-7.83,2.45-11.26,4.79-.59-5.36-.19-10.36,2.76-14.87,2.92-4.46,7.26-7.05,12.13-9.07-4.82-1.76-9.71-2.19-14.71-1.75,.74-7.03,5.54-12.87,13.28-14.95,1.13-2.19,2.22-4.31,3.43-6.66-6.03,.16-10.99-2.26-15.44-6.57,6.57-1.83,10.14-8.37,17.03-9.47-3.21-6.82-4.02-14.63-10.27-20.11,7.01-.37,13.61,.08,20.82,1.54-11.86-12.59-7.06-24.01,1.15-35.54,1.93,1.3,3.61,2.43,5.6,3.77-.89-10.14,3.57-17.89,9.97-25.12,1.41,1.22,2.74,2.36,4.22,3.63,1.86-8.55,7.16-14.49,13.61-19.95,5.02,4.29,8.97,9.21,11.63,15.24,2.89,6.55,.31,12.63-1.29,18.95,3.15,1.92,5.03,4.73,5.05,8.31,.02,2.55-.69,5.11-1.12,7.66-.22,1.3-.53,2.58-.81,3.96,.47,.22,.88,.44,1.31,.62,4.33,1.88,5.79,4.84,5.03,10.01-.32,2.2-.49,4.41-.73,6.61,.43,.23,.68,.39,.96,.49,5.57,2.01,8.04,5.44,7.91,11.34-.07,3.37-.42,6.74-.6,10.11-.07,1.24-.01,2.49-.01,4.1,2.48-1.5,4.66-2.82,6.66-4.03,3.82,4.82,7.64,9.53,11.34,14.34,1.73,2.25,3.36,4.63,2.83,7.87,2.71,3.62,6.24,6.42,9.99,8.96,.35,.24,.91,.3,1.36,.26,1.97-.14,3.37,.73,4.39,2.32,.9,1.41,1.79,2.83,2.75,4.35Zm179.87-5c11.34,8.97,17.27,21.51,21.71,35.04,10.63-.57,20.36-3.44,29.51-8.83-8.97-17.63-22.29-29.87-40.5-35.98-3.8,3.46-7.25,6.61-10.72,9.76Zm-241.62,26.24c9.25,5.4,18.99,8.31,29.52,8.8,4.46-13.6,10.4-26.06,21.69-35.02-3.52-3.21-7.01-6.4-10.7-9.77-18.3,6.19-31.58,18.41-40.51,35.99Zm129.04,18.66c.03-.12,.05-.24,.08-.36-.26-.09-.51-.21-.77-.26-4.47-1-8.98-1.86-13.41-3-12.43-3.19-24.49-7.38-35.45-14.24-7.62-4.77-14.17-10.61-18.49-18.69-1.19-2.23-2.6-4.35-4.08-6.4-.44-.61-1.46-1.14-2.18-1.1-.44,.03-1.1,1.21-1.14,1.91-.7,10.51,1.32,20.36,7.06,29.36,5.34,8.37,12.91,12.63,22.79,12.69,14,.09,28,.06,41.99,.09,1.2,0,2.4,0,3.6,0Zm34.64-.43c.02,.13,.05,.26,.07,.39,.24,.03,.47,.08,.71,.08,8.75-.02,17.51-.02,26.26-.06,6.88-.03,13.77,.11,20.64-.2,7.11-.32,13.25-3.08,17.88-8.65,8.07-9.72,10.81-21.08,10-33.46-.04-.64-.63-1.59-1.16-1.75-.54-.16-1.53,.32-1.94,.82-.91,1.11-1.62,2.39-2.36,3.63-3.27,5.51-6.64,10.91-11.57,15.18-4.78,4.14-10.01,7.56-15.63,10.4-12.16,6.14-25.12,9.87-38.39,12.69-1.5,.32-3.01,.62-4.51,.93Zm64.72-38.24c-.45,.27-.67,.37-.86,.51-12.64,9.09-26.6,15.36-41.55,19.53-9.51,2.65-19.2,4.23-29.04,4.91-3.33,.23-6.36,1.08-7.99,4.37-1.37,2.79-1.38,5.78-1.32,8.9,.75-.05,1.28-.06,1.81-.13,13.34-1.89,26.53-4.51,39.34-8.78,10.06-3.35,19.71-7.58,28.23-14.04,4.8-3.64,8.96-7.9,11.98-13.16,.2-.35,.32-.75,.53-1.24-.4-.31-.75-.58-1.13-.88Zm-165.25,1.27c1.48,2.1,2.72,4.11,4.2,5.92,6.21,7.61,14.31,12.68,23.08,16.77,13.22,6.17,27.23,9.71,41.52,12.32,4.32,.79,8.66,1.42,13.2,2.15,0-1.4,.05-2.53,0-3.65-.37-6.69-3.11-9.33-9.77-9.87-4.57-.37-9.14-.86-13.65-1.61-20.47-3.4-39.4-10.67-56.39-22.73-.28-.2-.63-.31-1.06-.52-.32,.36-.62,.68-1.11,1.23Zm209.75-37.86c17.74-28,25.73-58.47,23.73-91.56-1.48,1.29-2.74,2.66-3.89,4.11-4.89,6.18-7.35,12.83-4.22,20.68,.79,1.98,1.12,4.14,1.65,6.15-4.82,2.5-6.15,5.2-5.18,10.33,.64,3.35,1.37,6.69,2.06,10.05-1.06,.34-2,.57-2.89,.93-3.15,1.25-4.28,3.09-4,6.46,.06,.72,.19,1.44,.26,2.16,.23,2.68,.44,5.37,.66,8.01-6.41,1.4-9.16,4.35-8.99,9.75,.14,4.32,.53,8.62,.81,12.94ZM71.36,131.04c.84-3.11,1.59-6.15,2.48-9.15,.98-3.32,.77-6.54-.45-9.75-1.66-4.37-4.41-8-7.56-11.37-.25-.27-.58-.46-1.1-.86-1.13,16.45,.57,32.32,4.6,47.96,4.04,15.65,10.34,30.31,19.2,43.87,.26-2.02,.33-3.99,.45-5.95,.13-2.05,.39-4.08,.48-6.13,.28-6.05-2.38-9.35-8.38-10.46-.16-.03-.31-.13-.68-.28,.32-3.27,.6-6.56,.96-9.85,.37-3.41-.75-5.39-3.93-6.66-.98-.39-2-.68-2.94-1,.7-3.38,1.4-6.56,2-9.75,1.04-5.46-.14-7.92-5.15-10.61Zm296.63-30.94c1.03,17.16-.77,33.52-5.04,49.6-4.29,16.15-11.01,31.24-20.21,45.34,1.48,1.07,2.87,2.08,4.43,3.22,1.77-7.35,4.67-13.77,11.67-17.42-1.74-4.75-1.6-9.29,.8-13.71,2.39-4.39,5.69-7.45,11.06-7.48,.27-3.35-2.15-4.83-4.06-6.74,.81-.89,1.61-1.7,2.34-2.56,2.02-2.39,4.2-4.68,5.98-7.25,2.21-3.19,1.66-6.26-1.18-8.92-.61-.57-1.28-1.07-1.86-1.55,1.43-2.76,2.81-5.44,4.2-8.11,2.23-4.27,2.09-8.59,.24-12.93-1.82-4.29-4.7-7.83-8.38-11.5ZM59.55,159.55c10.49,2.02,14.74,9.72,11.97,21.37,6.93,3.62,9.8,10.05,11.59,17.37,1.56-1.15,2.95-2.16,4.37-3.2-18.46-28.9-26.87-60.38-25.3-94.87-3.7,3.71-6.68,7.39-8.48,11.9-1.67,4.2-1.7,8.34,.44,12.42,1.42,2.71,2.8,5.43,4.22,8.17-.44,.34-.83,.62-1.2,.92-3.58,2.9-4.17,6.22-1.57,9.99,1.29,1.88,2.86,3.58,4.36,5.31,1.17,1.36,2.43,2.65,3.68,4-1.92,1.95-4.34,3.43-4.06,6.62Zm251.15,66.3c.2,14.37-3.64,27.08-14.53,37.66,4.11,.32,7.75,.78,11.39,.83,6.5,.09,12.91-.59,18.77-3.74,1.24-.67,2.32-1.61,3.46-2.42-3.95-12.45-9.32-23.66-19.09-32.32Zm-190.91-.46c-10,9.14-15.39,20.39-19.2,32.51,5.46,6.88,24.74,7.77,33.07,5.16-10.52-10.2-14.27-22.95-13.87-37.67Zm207.38-25.64c22.35,10.05,37.69,26.12,43.9,50.2,1.83-.58,2.93-1.74,2.94-3.31,.01-2.3,0-4.76-.75-6.89-5.06-14.53-13.39-26.91-24.91-37.14-4.66-4.14-9.9-7.41-15.27-10.48-1.96,2.44-3.84,4.79-5.72,7.14-.07,.09-.09,.21-.19,.48Zm-229.98-7.64c-1.41,.86-2.79,1.7-4.17,2.54-17.64,10.75-29.28,26.3-36.15,45.57-.68,1.91-.7,4.14-.65,6.21,.04,1.68,1.04,3.01,3.02,3.49,6.22-24.13,21.64-40.17,43.96-50.2-2.07-2.62-4-5.07-6.01-7.61Zm-71.97,9.67c-7.25,.79-11.83,11.06-7.55,16.77,1.97,2.62,3.54,5.26,3.69,8.63,.17,3.61,2.23,5.82,5.56,7.04,3.29,1.2,6,.18,8.45-1.86,1.07-6.31,4.73-9.79,11.32-10.55-2.01-1.5-3.97-1.74-6.02-1.94-3.38-.34-6.73-.9-10.09-1.37-.02-.21-.05-.43-.07-.64,2.89-1.46,5.11-3.56,6.65-6.62-5.79-1.05-9.7-4.32-11.95-9.44Zm369.74,30.58c2.58,2.11,5.33,3.01,8.59,1.77,3.34-1.27,5.24-3.59,5.41-7.17,.15-3.1,1.34-5.7,3.37-7.99,1.75-1.98,2.22-4.35,1.94-6.92-.54-4.94-4.77-9.78-8.7-10.25-1.78,2.16-3.2,4.49-5.19,6.11-2,1.61-4.57,2.51-7,3.77,1.23,2.63,3.58,4.61,6.29,6.52-3.48,.76-6.92,1.29-10.37,1.65-1.97,.2-3.85,.48-5.6,1.86,7.51,1.72,9.57,3.69,11.25,10.66Zm-284.74-22.97c-1.78-2.7-3.43-5.2-5.13-7.77-21.63,9.55-36.57,24.56-43.12,47.72,1.7-.65,2.98-1.13,4.27-1.62,9.23-18.71,23.46-31.73,43.98-38.33Zm257.81,39.8c-2.1-17.46-25.8-43.55-42.85-47.26-1.79,2.33-3.85,4.53-4.7,7.58,20.19,6.48,34.38,19.55,43.6,38.21,1.33,.49,2.6,.97,3.95,1.47ZM54.89,172.31c-1.9-.96-3.61-1.83-5.15-2.61-5.35,1.69-7.56,4.61-7.17,9.26,.31,3.67,3.27,6.6,7.29,7.14,5.69-4.01,11.63-7.37,19-6.03,3.31-5.85-.14-15.25-6.33-17.45-2.38-.85-4.55-.45-6.3,1.42-1.22,1.31-2.32,2.73-3.54,4.18,1.22,.76,2.38,1.47,3.61,2.24-.52,.68-.95,1.25-1.41,1.85Zm325.58,13.83c4.36-.92,7.13-3.86,7.24-7.56,.14-4.72-2.1-7.49-7.3-8.86-1.57,.8-3.26,1.67-5.06,2.59-.45-.61-.89-1.21-1.4-1.9,1.3-.79,2.46-1.5,3.61-2.2-1.02-1.23-1.93-2.34-2.86-3.44-2.5-2.98-5.86-3.52-8.94-1.12-4.3,3.36-6.29,7.83-5.48,13.34,.15,1.04,.58,2.04,.89,3.11,7.62-1.37,13.55,1.98,19.3,6.04Zm4.78-69.06c-.87,16.02-3.16,31.46-8.29,46.5,.35,.44,.72,.89,1.2,1.5,2.45-3.67,5.88-5.28,10.13-5.37,3.27-4.87,.1-8.08-2.86-11.24,8.56-11.12,8.56-22.17-.18-31.39Zm-340.6,.16c-3.14,4.32-5.56,8.86-6.28,14.17-.93,6.84,2.53,12.03,6.42,17.05-4.85,5.92-5.39,8.19-2.6,11.28,4.09,.09,7.45,1.79,9.93,5.37,.5-.67,.85-1.13,1.2-1.59-.18,0-.36,.02-.55,.03-1.75-7.62-3.8-15.19-5.15-22.89-1.35-7.67-1.99-15.47-2.97-23.42ZM14.2,247.27c-2.68,2.42-3.72,5.05-3.18,8.19,.51,2.97,2.09,5.09,5.2,5.79,2.56,.58,4.42,2.03,5.6,4.43,.98,2,2.53,3.39,4.92,3.44,3.59,.07,6.22-1.62,8.11-4.55,.24-.38,.43-.93,.35-1.35-.78-3.94-.92-7.84,.68-11.43-2.08-.4-4-.77-6.13-1.18-1.88,3.9-5.4,4.94-9.67,4.09-3.79-.75-5.54-3.34-5.87-7.43Zm401.81-.07c-.2,3.98-1.84,6.5-5.33,7.37-4.43,1.1-8.15,.08-10.2-3.95-2.16,.41-4.08,.77-6.11,1.15,1.76,3.8,1.43,7.9,.47,12.5,1.33,1.19,2.62,2.75,4.26,3.75,3.63,2.24,7.31,1.29,9.35-2.43,1.37-2.49,3.38-3.84,6.01-4.5,3.08-.77,4.39-3.04,4.81-5.91,.45-3.07-.62-5.63-3.26-7.98Zm-44.76-19.02c1.34,3.25,2.79,6.3,3.85,9.48,.96,2.87,2.94,4.32,5.65,5.02,5.49,1.41,10.41-1.74,11.51-7.3,1.06-5.36-2.28-10.21-7.61-10.96-1.71-.24-3.17,.03-4.61,1.36-1.16,1.07-2.91,1.61-4.5,2.06-1.3,.37-2.74,.24-4.29,.34Zm-322.13-3.43c-4.67-1.07-8.88,.98-10.62,5.02-1.75,4.05-.21,9.4,3.37,11.74,3.93,2.57,10.55,1.75,12.37-1.86,1.85-3.66,3.18-7.59,4.77-11.5-3.75-.03-7.41-.08-9.89-3.41Zm27.49-20.75c-3.81-7.31-16.51-14.92-24.67-14.85,1.63,8.6,9.8,17.63,22.24,16.97,.93-.81,1.69-1.47,2.43-2.12Zm301.69-14.87c-8.95,.64-20.28,6.97-24.72,14.9,.71,.66,1.45,1.35,2.21,2.04,12.74,.73,20.93-8.46,22.51-16.94ZM19.48,230.98c-3.83,4.14-.47,12.98,4.72,13.06,2.42,.04,4.23,1.44,5.94,3.09,3.7,3.57,9.38,1.92,10.87-3.22-3.17-1.84-4.78-4.85-5.54-8.39-7.2,2.99-11.03,1.87-15.99-4.54Zm369.7,12.86c1.75,5.38,7.3,6.84,11.18,3.02,1.62-1.6,3.41-2.79,5.67-2.85,5.33-.14,8.51-9.02,4.74-13.07-3.99,6.07-9.28,7.77-16.02,4.57-.69,3.63-2.41,6.43-5.57,8.33Zm-12.63-57.18c-2.88-2.29-7.25-4.1-10.35-4.42-2.93-.3-5.69,.21-8.1,1.93-5.52,3.92-7.63,9.68-8.68,15.97,.69,.63,1.22,1.13,1.76,1.6,.13,.11,.32,.14,.58,.25,5.96-8.6,14.46-13.22,24.79-15.32Zm-323.09,0c10.63,2.13,19.11,6.82,25.15,15.52,.87-.79,1.56-1.43,2.22-2.03-.83-5.14-2.48-9.74-5.89-13.54-2.72-3.04-6.11-4.67-10.26-4.38-4.02,.29-7.49,2-11.22,4.43Zm321.42-25.28c3.49-6.3,9.18-40.2,7.5-44.52-1.36,1.07-2.29,2.3-2.51,4.17-.17,1.46-.82,2.89-1.44,4.25-1.02,2.24-2.18,4.41-3.31,6.66,.25,.28,.49,.54,.73,.8,3.39,3.7,3.77,7.61,1.09,11.88-.77,1.22-1.66,2.37-2.59,3.47-1.32,1.56-2.72,3.05-4.07,4.55q2.83,4.21,2.94,7.78c.53,.31,1.09,.63,1.66,.96ZM54.75,132.37c-1.66-4.58-3.1-8.76-4.72-12.88-.42-1.06-1.43-1.87-2.17-2.8-.14,.09-.28,.18-.42,.27,.77,15.11,2.91,29.98,7.74,44.57,.83-.5,1.42-.87,2.04-1.24-.74-3.18,1-5.37,2.85-7.59-.54-.58-1.07-1.07-1.51-1.63-1.92-2.39-4.04-4.66-5.66-7.24-2.28-3.64-1.71-7.43,1.12-10.67,.35-.4,.73-.79,.74-.8ZM14.25,170.05c.99,2.17,1.87,3.89,2.56,5.68,.98,2.53,1.81,5.11,2.75,7.66,1.16,3.14,3.3,5.19,6,5.88,2.74-2.44,5.08-4.54,7.51-6.7-5.11-5.37-11.46-9.36-18.83-12.51Zm401.39,.13c-6.99,3.02-13.35,6.98-18.44,12.34,2.53,2.29,4.87,4.39,7.38,6.66,2.38-.44,4.68-2.25,5.82-5.12,1.8-4.56,3.47-9.17,5.24-13.88ZM64.15,219.17c2.62-3.48,5.24-6.96,7.99-10.63-5.37-.38-10.12-1.91-14.14-5.17-3.7,2.88-4.8,6.68-3.16,10.65,1.59,3.85,5.01,5.74,9.31,5.15Zm293.98-10.64c2.78,3.69,5.4,7.18,8.02,10.66,4.6,.45,7.92-1.52,9.41-5.61,1.42-3.89,.2-7.69-3.34-10.22-4.02,3.27-8.78,4.76-14.09,5.16Zm43.06-68.9c-1.68,7.52-3.33,14.89-4.98,22.28,.61,.58,1.3,1.17,1.91,1.84,.64,.7,1.19,1.48,1.78,2.23,7.56-6.7,7.6-16.7,1.3-26.34ZM34.02,161.81c-1.65-7.39-3.28-14.7-4.91-21.99-6.59,6.64-5.97,20.2,1.19,26.11,1.24-1.37,2.48-2.75,3.72-4.12Zm28.64,60.03c-5.2-.35-8.43-2.86-10.31-7.37-.81-1.95-4.47-2.93-6.39-1.79-2.34,1.39-4.55,3.01-6.97,4.64,.33,.07,.54,.15,.74,.14,5.09-.28,8.97,1.66,11.72,6.04,.54,.86,1.77,1.6,2.79,1.78,2.09,.35,4.25,.29,6.24,.39,.82-1.43,1.41-2.46,2.18-3.82Zm328.41-4.35c.04-.16,.09-.32,.13-.47-.93-.5-1.88-.96-2.77-1.52-.97-.61-1.91-1.27-2.8-1.98-2.92-2.32-6.42-1.36-8.26,1.91-1.02,1.82-2.54,3.54-4.22,4.77-1.43,1.04-3.42,1.3-5.33,1.96,.57,1,1.21,2.12,1.82,3.2,4.44,.76,8.21,.44,10.82-3.86,1.71-2.82,4.74-3.77,7.94-4,.89-.06,1.79,0,2.68,0ZM39.11,159.88c-2.14-4.61-.38-8.18,2.33-11.5-2.57-4.45-5.15-8.78-10.31-11.18,1.69,7.81,3.38,15.63,5.09,23.55,1.24-.38,1.97-.6,2.89-.87Zm354.67,.78c2.25-7.82,3.95-15.62,5.13-23.82-4.98,2.78-7.55,7.12-10.1,11.55,2.9,3.35,4.38,7.04,2.42,11.48,.85,.27,1.53,.48,2.55,.8Zm-12.11,27.84c-1.8,3.84-3.44,7.33-5.1,10.86,1.72,.23,3.5,.47,5.29,.72,2.58-3.64,5.67-6.57,10.12-7.91-1.4-2.16-2.82-3.81-4.95-4.76-2.21-.99-3.69,1.09-5.36,1.09Zm-343.42,3.69c4.61,1.41,7.62,4.38,10.18,7.92,1.84-.26,3.61-.5,5.26-.73-1.67-3.56-3.32-7.07-5.06-10.79-1.05-.41-2.38-.94-3.83-1.51-3.03,.36-4.77,2.51-6.55,5.1Zm-6.42-23.07c3.06,1.67,5.99,3.27,8.73,4.76,1.34-1.68,2.75-3.47,4.2-5.29h-5.87c-.15-.56-.34-1.26-.54-2.01,4.07-1.2,7.87-.41,11.87,.52-1.8-3.57-5.16-5.19-9.47-4.86-4.38,.34-7.66,2.89-8.92,6.87Zm366.63-.02c-1.41-4.35-5.09-6.93-9.99-6.94-3.86,0-7.3,1.97-8.23,4.99,3.92-1.18,7.74-1.7,11.77-.6-.27,.83-.5,1.54-.67,2.06h-5.78c1.47,1.85,2.89,3.65,4.15,5.24,2.82-1.53,5.72-3.1,8.76-4.75Zm-362.45,12.99c1.65-.1,3.08-.19,4.28-.27,.95-4.79-2.21-6.77-5.66-8.53-4.09-2.09-8.52-2.89-13.03-3.37-.36-.04-.73,.03-1.55,.08,6.28,3.3,11.54,7.14,15.95,12.09Zm354.28-4.83c-.21,1.7-.37,3.06-.55,4.54,1.52,.09,3,.18,4.55,.27,4.4-5.01,9.76-8.82,15.53-12.12-7.3,.65-14.38,1.77-19.53,7.32Zm-15.85,24.54c2.67,2.64,4.04,5.38,4.25,8.86,3.81-1.78,6.89-.72,9.71,1.86,.92,.84,2.17,1.33,3.47,2.1-1.11-2.52-2.02-4.74-3.07-6.88-.44-.9-1.07-1.78-1.83-2.43-3.46-2.93-7.66-3.34-12.53-3.51Zm-322.87,8.84c.18-3.39,1.59-6.16,4-8.57-8.27-1.25-15.1,3.82-17.04,12.55,1.4-.88,2.81-1.53,3.9-2.52,2.67-2.42,5.57-2.96,9.14-1.47Zm1.95,35.31c-1.65,1.98-2.98,3.86-4.6,5.44-1.67,1.63-3.65,2.94-5.45,4.44-2.47,2.06-4.21,4.62-5.11,7.72-.18,.61-.11,1.28-.15,1.93,.58-.16,.78-.37,.94-.62,2.2-3.42,5.17-5.82,9.07-7.08,.96-.31,1.9-.79,2.75-1.34,2.48-1.59,3.82-3.84,3.44-6.85-.15-1.17-.55-2.3-.88-3.64Zm-15.87-51.37c-3.44,4.01-2.76,11.54-.85,14.06,.43,.03,.96,.07,1.64,.12,1.05-3.94,3.7-6.4,7.51-7.83-2.3-3.04-4.78-5.3-8.3-6.35Zm354.04,70.86l.43-.08c-.08-.67-.07-1.37-.27-2-1.11-3.58-3.43-6.22-6.31-8.59-2.72-2.24-5.08-4.9-7.58-7.4-.4-.4-.69-.89-1.03-1.34-.16,.02-.33,.05-.49,.07-.19,1.87-.74,3.78-.48,5.59,.48,3.37,3.18,4.81,6.03,6.13,2.31,1.07,4.54,2.43,6.58,3.96,1.25,.94,2.09,2.43,3.12,3.67Zm.16-56.59c.81-.14,1.33-.23,1.77-.3,2.27-4.69,1.74-11.13-1.14-13.97-3.44,1.07-5.95,3.35-8.19,6.33,3.9,1.48,6.46,3.95,7.56,7.94ZM44,245.21c-1.71,2.21-3.25,4.33-4.93,6.35-1.87,2.25-2.06,4.82-1.75,7.64,2.01-3.54,5.25-5.69,8.28-8.12,2.01-1.62,3.59-3.78,5.51-5.87h-7.1Zm335.46-.02c1.92,2.8,4.13,5.23,6.88,7.25,1.77,1.31,3.32,2.92,4.89,4.48,.65,.64,1.08,1.5,1.85,2.61,.29-2.93,.1-5.33-1.44-7.41-1.74-2.34-3.58-4.61-5.41-6.94h-6.77Zm-351.63,2.95c-.9-.49-1.72-1.22-2.65-1.41-2.59-.54-5.24-.85-6.91-3.28-1.68,1.99-2,4.52-.99,6.47,.96,1.87,3.3,2.89,5.92,2.59,2.43-.28,3.86-1.53,4.63-4.36Zm384.23-4.88c-1.72,2.64-4.42,2.85-7,3.45-.97,.22-1.81,.99-2.67,1.49,.73,2.7,2.31,4.02,4.7,4.25,2.33,.22,4.59-.17,5.79-2.44,1.11-2.1,.95-4.29-.82-6.75ZM17.43,228.83c-7.84,1.71-14.87,8.68-14.54,14.62,3.2-4.5,7.44-7.3,12.25-8.82,.82-2.06,1.54-3.89,2.29-5.81Zm409.97,14.37c-.8-6.91-7.61-13.46-14.52-14.28,.72,1.84,1.45,3.71,2.24,5.72,4.91,1.48,9.03,4.36,12.27,8.56ZM25.08,191.81c-2.53-1.05-4.85-3.15-7.67-1.66-3.01,1.59-5.8,3.61-8.69,5.44,.1,.16,.2,.32,.29,.48,5.16-.98,10.32-1.97,15.76-3.01,.01-.06,.15-.62,.3-1.24Zm380.64,1.76c.04-.16,.08-.31,.12-.47l15.41,2.95c-1.19-1.26-2.52-2.25-3.82-3.29-4.32-3.45-6.92-4.24-12.25-.83,.09,.38,.18,.79,.3,1.18,.05,.16,.16,.31,.24,.46Zm.12,5.04c5.34,1.97,10.5,3.85,16.08-.02-5.69-.24-10.49-3.32-15.95-2.37-.07,.79-.12,1.32-.15,1.86-.01,.23,.02,.46,.02,.53Zm-381.54-2.41c-5.54-.76-10.29,2.07-15.45,2.65,3.22,1.93,6.59,2.75,10.26,1.59,1.76-.55,3.5-1.16,5.36-1.79-.04-.66-.1-1.43-.16-2.46Zm9.15,10.95c-1.2-4.28-.74-8.36,1.05-12.61-3.7,1.13-5.8,3.27-6.73,6.49,1.23,3.01,3.17,5.12,5.68,6.12Zm362.69-12.31c.44,2.01,1.09,4.03,1.26,6.09,.16,2.04-.17,4.11-.29,6.31,2.57-1.48,4.34-3.51,5.4-6.1-1.13-3.64-3.41-5.86-6.38-6.3Zm19.27,48.88c.08-.15,.16-.31,.24-.46,3.14,.38,6.28,.77,9.4,1.15-2.55-3.39-5.93-5.79-10.11-7.23-.5,1.52-.93,2.83-1.37,4.16,.6,.78,1.22,1.58,1.85,2.38Zm-410.14,.69c3.2-.38,6.37-.75,9.54-1.12,.02,.15,.04,.3,.05,.45,.63-.8,1.25-1.6,1.87-2.38-.46-1.36-.91-2.7-1.39-4.14-4.22,1.48-7.57,3.86-10.07,7.2Zm382.87,20.79c-1.54-2.67-4.88-4.87-8.03-5.29-.73,2.47-.1,4.45,1.8,5.64,2.19,1.37,4.46,1.24,6.23-.35Zm-346.1-.06c1.97,1.77,4.4,1.84,6.61,.25,1.79-1.29,2.32-3.34,1.39-5.58-3.27,.87-6.01,2.52-8,5.33ZM4.23,220.23c3.45-1.06,6.62-2.03,9.73-2.99-.21-1.5-.41-2.97-.64-4.61-4.08,1.35-7.05,3.79-9.09,7.6Zm412.67-7.63c-.22,1.78-.4,3.26-.57,4.63,3.21,.99,6.37,1.97,9.71,3-2.04-3.82-5.01-6.27-9.14-7.62ZM34.61,191.34c-.97-1.19-2.14-2.62-3.39-4.16-2.9,2.73-4.31,5.64-4.38,8.98,2.5-1.55,4.96-3.07,7.78-4.82Zm368.77,4.7c-.12-3.35-1.41-6.3-4.43-8.86-1.25,1.59-2.35,3-3.27,4.18,2.76,1.68,5.17,3.14,7.7,4.68Zm8.01,28.8c4.34-.93,8.19-1.75,12.03-2.57l.09-.45c-2.9-.74-5.8-1.47-8.75-2.22-1.21,1.88-2.21,3.43-3.38,5.25ZM6.71,221.87c.04,.2,.09,.39,.13,.59,1.95,.31,3.92,.54,5.84,.95,1.91,.41,3.77,.99,5.66,1.5,.12-.11,.25-.22,.37-.34-1.05-1.59-2.11-3.18-3.31-5-3.01,.79-5.85,1.54-8.7,2.29Zm29.77-32.08c1.88-1.69,3.74-3.34,5.53-4.95-2.4-1.04-6.09-.62-8.5,1.04,1.01,1.32,2.02,2.65,2.97,3.91Zm357.31-.05c.93-1.23,1.96-2.59,2.99-3.96-2.97-1.67-6.68-2-8.49-.92,1.77,1.57,3.59,3.18,5.49,4.87Z"/>
      <path class="cls-1" d="M330.08,114.72c-.09,63.2-50.93,114.85-114.87,114.9-63.37,.05-115.07-50.8-114.99-114.92C100.29,49.58,153.28-.07,215.05,0c63.51,.08,115.01,51.35,115.03,114.72Zm-115.11,112.57c62.06,.06,112.66-50.32,112.75-112.24,.09-62.08-50.37-112.69-112.42-112.76-62.01-.07-112.65,50.35-112.76,112.26-.11,62.05,50.39,112.68,112.44,112.74Z"/>
      <path class="cls-1" d="M26.46,227.89c-.86-.07-1.51-.11-1.85-.14-.84-2.98-1.62-5.76-2.47-8.8,.23-.19,.77-.64,1.52-1.26,2.03,3.1,3.01,6.35,2.81,10.2Z"/>
      <path class="cls-1" d="M406.6,217.67c.73,.6,1.27,1.04,1.54,1.27-.85,2.96-1.63,5.69-2.52,8.78-.21,.02-.9,.08-1.88,.18-.16-3.73,.78-6.99,2.85-10.22Z"/>
      <path class="cls-1" d="M22.59,257.82c1.44,1.76,2.62,3.21,4.02,4.92-1.07,.43-1.75,.7-2.34,.93-1.03-1.26-1.97-2.4-2.98-3.63,.32-.54,.67-1.15,1.3-2.22Z"/>
      <path class="cls-1" d="M407.66,257.82c.6,.99,.97,1.59,1.34,2.19-.96,1.16-1.9,2.3-3.01,3.62-.52-.19-1.22-.45-2.37-.88,1.41-1.72,2.65-3.24,4.03-4.93Z"/>
      <path class="cls-1" d="M385.86,230.2c.51-.49,1.02-.98,1.53-1.46,2.22,2.23,2.56,4.99,.98,8.01-.61-.32-1.22-.65-1.53-.81-.16-1.98-.29-3.73-.43-5.48-.19-.09-.37-.17-.56-.26Z"/>
      <path class="cls-1" d="M42.88,228.73c.53,.59,.98,1.07,1.42,1.56-.13,0-.27,0-.4,0-.17,1.77-.35,3.55-.56,5.68-.18,.11-.79,.47-1.41,.82-1.64-2.83-1.32-5.72,.94-8.07Z"/>
      <path class="cls-1" d="M58.91,206.87c.56,.61,1.04,1.13,1.57,1.71-1.7,1.8-.93,3.42,.41,5.03-.57,.59-1.09,1.14-1.61,1.69-2.81-2.86-2.95-5.73-.37-8.42Z"/>
      <path class="cls-1" d="M369.79,208.53c.54-.59,1.02-1.12,1.49-1.63,2.62,2.35,2.54,5.29-.2,8.34-.53-.54-1.06-1.07-1.64-1.65,1.2-1.59,2.06-3.22,.35-5.05Z"/>
      <path class="cls-1" d="M299.55,114.89c-.04,46.51-37.96,84.32-84.51,84.26-46.6-.06-84.35-37.87-84.3-84.43,.05-46.66,37.92-84.33,84.66-84.22,46.49,.11,84.19,37.92,84.15,84.4Zm-2.4-.11c0-45.04-36.77-81.82-81.86-81.88-45.28-.06-82.19,36.74-82.18,81.92,.02,45.09,36.91,81.93,82.04,81.92,45.13,0,82-36.87,81.99-81.97Z"/>
      <path class="cls-1" d="M276.66,192.85c-.52-.7-.94-1.27-1.44-1.96,13.25-10.44,23.27-23.3,30.01-38.77,.79,.35,1.43,.63,2.19,.97-6.91,15.87-17.1,29-30.77,39.76Z"/>
      <path class="cls-1" d="M153.18,188.99c-.56,.67-1.02,1.21-1.47,1.74-8.97-5.87-22.96-24.17-27.65-36.18,.63-.3,1.26-.6,2.07-.98,3.18,6.86,6.95,13.28,11.5,19.23,4.53,5.92,9.66,11.26,15.55,16.19Z"/>
      <path class="cls-1" d="M255.22,19.09c.48,.19,.91,.36,1.5,.6-1.14,3.04-2.26,6-3.41,9.07-.57-.22-.99-.38-1.58-.6,.56-1.58,1.09-3.07,1.62-4.57-.09-.08-.18-.16-.26-.24-1.46,1.24-2.92,2.49-4.54,3.87-1.78-1.84-.86-4.26-1.95-6.36-.66,1.63-1.25,3.09-1.88,4.66-.54-.2-1.02-.38-1.59-.6,1.14-3.03,2.24-5.95,3.38-9,.55,.17,1.03,.32,1.51,.47,.39,2.58,.76,5.05,1.18,7.84,2.13-1.81,3.99-3.4,6.03-5.13Z"/>
      <path class="cls-1" d="M124.87,91.96c-1.63,1.96-4.14,1.38-6.15,2.73,1.72,.43,3.2,.8,4.83,1.21-.08,.54-.16,1.03-.27,1.7-3.21-.77-6.28-1.51-9.45-2.27,.14-.59,.25-1.04,.37-1.54,2.44-.69,4.85-1.37,7.56-2.14-2.02-1.87-3.82-3.53-5.73-5.3,.09-.44,.19-.93,.33-1.59,3.17,.76,6.2,1.48,9.37,2.24-.11,.57-.21,1.06-.33,1.67-1.68-.37-3.24-.72-4.79-1.06-.05,.09-.11,.18-.16,.28,1.39,1.28,2.79,2.56,4.42,4.06Z"/>
      <path class="cls-1" d="M293.47,62.82c-.38-.55-.65-.94-.9-1.3,.6-2.65,1.19-5.22,1.89-8.3-1.95,1.39-3.52,2.51-5.22,3.71-.34-.42-.7-.85-1.15-1.41,2.66-1.95,5.22-3.82,7.85-5.75,.33,.43,.62,.79,.95,1.21-.65,2.69-1.29,5.37-2.04,8.51,2.02-1.46,3.66-2.65,5.38-3.89,.35,.45,.66,.86,1.12,1.44-2.62,1.92-5.17,3.79-7.87,5.78Z"/>
      <path class="cls-1" d="M304.95,62.94c.73,1.38,1.34,2.55,1.98,3.7,.64,1.16,1.21,2.48,.12,3.49-.76,.7-2,.87-3.33,1.4-.1,.96-.91,1.9-2.43,2.05-1.53,.15-2.25-.92-2.86-2.08-.68-1.27-1.33-2.55-2.09-4.02,2.85-1.5,5.64-2.98,8.62-4.54Zm-4.22,9.11c.8-.57,1.26-.89,1.9-1.34-.61-1.25-1.16-2.37-1.75-3.57-.92,.5-1.58,.87-2.42,1.33,.76,1.2,1.43,2.27,2.26,3.58Zm1.33-5.47c.77,1.16,1.46,2.2,2.28,3.46,.78-.67,1.23-1.07,1.79-1.56-.59-1.13-1.11-2.12-1.68-3.21-.84,.46-1.51,.82-2.4,1.3Z"/>
      <path class="cls-1" d="M222.16,10.91c.93,.66,1.69,.97,2.1,1.53,1.38,1.88,2.63,3.85,4.33,5.76,.23-1.97,.47-3.94,.72-6.04,.59,.05,1.09,.09,1.75,.15-.35,3.22-.69,6.3-1.03,9.46h-1.57c-1.56-2.25-3.07-4.4-4.86-6.98-.3,2.34-.54,4.21-.79,6.19h-1.74c.35-3.23,.69-6.36,1.09-10.06Z"/>
      <path class="cls-1" d="M184.4,202.41c.55,.23,1.02,.43,1.6,.67-1.21,2.98-2.37,5.86-3.54,8.76-2.21-.45-1.89-2.41-2.49-3.7-.62-1.35-1-2.81-1.65-4.73-.93,2.16-1.68,3.91-2.49,5.78-.54-.21-1.02-.4-1.6-.62,1.21-2.99,2.38-5.87,3.7-9.14,2.73,2.41,2.3,5.91,4.07,8.68,.81-1.93,1.59-3.75,2.4-5.69Z"/>
      <path class="cls-1" d="M238.74,204.74c.6-.15,1.04-.26,1.67-.41,.76,3.1,1.49,6.1,2.35,9.63-1.11-.31-1.93-.35-2.53-.74-1.89-1.24-3.7-2.61-5.93-4.2,.54,2.31,.97,4.16,1.43,6.13-.54,.17-1.03,.32-1.67,.52-.76-3.15-1.49-6.16-2.33-9.64,3.61,.5,5.4,3.39,8.4,4.78-.48-2.07-.91-3.94-1.4-6.06Z"/>
      <path class="cls-1" d="M312.24,111.31c-1.11,1.43-1.95,2.52-2.8,3.62l-.47-.26c-.06-.6-.12-1.21-.16-1.68,1.01-1.73,3.14-2.43,3.61-4.68h-3.64c-.1-.56-.18-1.02-.31-1.78,3.26-.15,6.42-.29,9.98-.46,0,1.93,.1,3.77-.03,5.61-.1,1.36-.9,2.35-2.38,2.57-1.86,.28-2.97-.63-3.79-2.94Zm1.63-3.14c.07,1.08-.05,2.03,.23,2.84,.21,.59,.95,.99,1.45,1.48,.43-.49,1.13-.94,1.24-1.49,.18-.9-.03-1.87-.08-2.89-.48-.04-.83-.1-1.17-.09-.47,.02-.93,.09-1.67,.16Z"/>
      <path class="cls-1" d="M237.63,23.68c-2.97-.06-5.16-2.29-5.08-5.19,.08-2.88,2.25-5,5.09-4.98,2.97,.02,5.19,2.22,5.16,5.11-.02,2.95-2.25,5.13-5.18,5.06Zm.02-8.47c-1.84,.02-3.35,1.66-3.3,3.58,.05,1.82,1.62,3.26,3.45,3.2,1.77-.06,3.23-1.64,3.21-3.48-.01-1.81-1.55-3.32-3.37-3.3Z"/>
      <path class="cls-1" d="M133.66,68.92c-2.87-1.77-5.53-3.42-8.39-5.19,.93-1.41,1.7-2.83,2.71-4.06,1.52-1.87,4.03-2.24,6.05-1.08,2.13,1.22,3.06,3.58,2.09,5.91-.62,1.49-1.56,2.84-2.45,4.42Zm-.56-2.52c1.11-1.5,2.29-2.89,1.34-4.78-.63-1.26-1.77-2.01-3.23-1.85-1.92,.22-2.71,1.67-3.42,3.33,1.81,1.12,3.53,2.19,5.31,3.29Z"/>
      <path class="cls-1" d="M214.3,21.13c-2.98,.02-5.17-2.13-5.16-5.06,0-2.93,2.21-5.09,5.17-5.07,2.87,.02,5.02,2.13,5.07,4.99,.05,2.93-2.11,5.13-5.08,5.15Zm3.26-5.07c-.01-1.87-1.46-3.36-3.27-3.38-1.87-.02-3.41,1.59-3.35,3.49,.06,1.85,1.56,3.3,3.38,3.27,1.84-.03,3.26-1.51,3.24-3.39Z"/>
      <path class="cls-1" d="M165.14,24.05c1.41-.68,2.67-1.4,4-1.91,2.67-1.02,5.1-.05,6.24,2.36,1.14,2.4,.35,4.92-2.07,6.36-1.13,.68-2.34,1.23-3.76,1.96-1.46-2.89-2.9-5.75-4.42-8.77Zm2.42,.76c.99,1.97,1.91,3.77,2.84,5.62,1.78-.72,3.61-1.38,3.57-3.44-.02-1.06-.79-2.44-1.66-3.09-1.6-1.18-3.14-.1-4.76,.9Z"/>
      <path class="cls-1" d="M278.2,45.11c2.4-2.32,4.68-4.53,7-6.78,.88,.87,2.03,1.85,2.97,3,1.65,2.02,1.51,4.61-.2,6.41-1.8,1.88-4.38,2.1-6.52,.42-1.17-.91-2.18-2.03-3.25-3.05Zm2.45-.01c1.24,1.36,2.41,2.93,4.27,2.26,1.05-.38,2.19-1.58,2.52-2.65,.57-1.87-1.03-2.96-2.26-4.07-1.52,1.5-2.96,2.92-4.53,4.46Z"/>
      <path class="cls-1" d="M169.67,205.85c-2.81-.03-5.04-2.28-5.04-5.06,0-2.77,2.32-5.03,5.1-4.99,2.81,.04,5.01,2.28,5,5.09,0,2.86-2.19,4.99-5.07,4.96Zm.03-1.69c1.76-.01,3.29-1.58,3.3-3.4,0-1.73-1.47-3.25-3.19-3.28-1.78-.03-3.47,1.71-3.42,3.52,.04,1.71,1.58,3.17,3.32,3.16Z"/>
      <path class="cls-1" d="M121.79,116.98h-9.73c.12-1.81,.08-3.49,.37-5.12,.44-2.41,2.38-3.79,4.83-3.7,2.38,.09,4.18,1.52,4.49,3.89,.21,1.58,.04,3.22,.04,4.93Zm-1.56-1.78c.25-2.02,.3-3.91-1.61-4.75-.94-.41-2.45-.32-3.36,.18-1.7,.94-1.61,2.74-1.32,4.57h6.29Z"/>
      <path class="cls-1" d="M187.85,203.6c1.57,.45,3,.75,4.33,1.27,2.46,.95,3.55,3.24,2.85,5.7-.71,2.49-2.77,3.83-5.4,3.37-1.41-.24-2.78-.68-4.29-1.07,.84-3.13,1.64-6.07,2.5-9.27Zm-.35,8.09c1.77,.66,3.5,1.39,4.81-.14,.7-.82,1.12-2.36,.88-3.38-.46-1.87-2.26-2.21-4.09-2.4-.54,2.01-1.05,3.91-1.6,5.92Z"/>
      <path class="cls-1" d="M279.86,33.69c-.36,.47-.64,.83-.99,1.3-1.46-1.07-2.85-2.09-4.38-3.21-.48,.62-.91,1.18-1.45,1.88,1.35,1.02,2.63,1.99,4,3.03-.29,.43-.54,.81-.89,1.33-1.36-1-2.65-1.95-4.05-2.98-.49,.61-.93,1.16-1.49,1.85,1.47,1.14,2.88,2.22,4.38,3.37-.29,.41-.56,.78-.94,1.31-1.97-1.47-3.89-2.89-5.91-4.4,1.94-2.61,3.84-5.15,5.85-7.85,1.98,1.47,3.89,2.89,5.88,4.37Z"/>
      <path class="cls-1" d="M133.98,53.58c.65,.51,1.2,.94,1.89,1.48,1.07-1.36,2.07-2.62,3.11-3.95,.44,.33,.81,.6,1.28,.95-1.03,1.34-2.01,2.61-3.07,4,.64,.5,1.2,.94,1.9,1.49,1.11-1.42,2.18-2.79,3.34-4.28,.45,.3,.87,.58,1.36,.91-1.52,1.96-2.95,3.81-4.52,5.84-2.56-1.97-5.07-3.91-7.74-5.97,1.49-1.93,2.94-3.81,4.46-5.78,.44,.31,.81,.57,1.34,.94-1.12,1.46-2.2,2.87-3.35,4.37Z"/>
      <path class="cls-1" d="M195.21,17.31c.14,.52,.26,.96,.4,1.46-1.61,.41-3.12,.8-4.82,1.23,.16,.76,.31,1.44,.5,2.33,1.78-.4,3.46-.78,5.26-1.18,.16,.42,.32,.84,.57,1.48-2.36,.58-4.62,1.13-7.17,1.75-.76-3.09-1.51-6.15-2.32-9.45,2.35-.58,4.6-1.14,7.03-1.74,.14,.53,.26,1,.41,1.55-1.79,.46-3.41,.88-5.24,1.34,.17,.75,.33,1.42,.53,2.28,1.62-.35,3.12-.68,4.87-1.06Z"/>
      <path class="cls-1" d="M113.37,98.26c.65,.11,1.04,.18,1.57,.27-.11,.93-.21,1.75-.3,2.58-.09,.83-.16,1.66-.26,2.71,.77,.12,1.44,.23,2.3,.37,.26-1.71,.49-3.28,.75-4.98,.5,.07,.9,.12,1.44,.2-.15,1.63-.3,3.22-.45,4.92,.77,.12,1.41,.22,2.33,.36,.25-1.83,.49-3.58,.74-5.43,.54,.07,.98,.13,1.55,.21-.29,2.41-.57,4.72-.87,7.19-3.27-.39-6.35-.75-9.63-1.14,.28-2.43,.55-4.74,.84-7.24Z"/>
      <path class="cls-1" d="M267.38,31.98c.43,.41,.77,.73,1.05,1-.05,.93-2.22,1.81-3.78,1.66-2.88-.29-5-2.88-4.64-5.66,.39-2.95,3.07-4.97,5.95-4.48,2.92,.49,4.64,3.02,4.01,6.1-.49-.07-.98-.14-1.46-.21-.39-3.52-1.8-5.45-5.39-3.38-1.56,.9-1.74,3.09-.76,4.51,1.13,1.63,2.77,1.81,5.01,.47Z"/>
      <path class="cls-1" d="M313,93.01c-.29-.43-.59-.85-.88-1.27,1.8-1.97,2.09-3.12,1.1-4.62-.85-1.28-2.07-1.82-3.59-1.47-1.56,.36-2.71,1.73-2.73,3.2-.02,1.66,.9,2.64,3.25,3.38,.02,.44,.05,.91,.07,1.31-.64,.67-2.65-.05-3.7-1.22-1.93-2.16-1.68-5.63,.54-7.44,2.24-1.82,5.76-1.38,7.4,.92,1.77,2.48,1.18,5.58-1.46,7.21Z"/>
      <path class="cls-1" d="M318.14,124.05c-.62-.04-1.02-.07-1.44-.1v-5.35c-.64-.05-1.31-.11-2.25-.19-.14,1.71-.27,3.3-.41,5-.53-.06-.98-.12-1.38-.16v-4.93c-.73-.05-1.42-.1-2.27-.16-.14,1.88-.27,3.61-.41,5.38h-1.55c.14-2.37,.27-4.68,.42-7.25,3.22,.18,6.32,.35,9.68,.53-.13,2.41-.26,4.72-.4,7.23Z"/>
      <path class="cls-1" d="M145.35,48.6c.35-.54,.64-.98,.97-1.48,1.8,.41,3.04-.21,3.68-2.16-.26-.34-.56-.74-1-1.33-1.02,.62-1.93,1.16-2.83,1.72-1.36,.85-2.69,1.11-3.91-.21-1.04-1.12-.96-2.67,.18-4.1,1.36-1.71,2.95-2.12,4.99-1.22-.29,.45-.57,.89-.88,1.37-1.36-.38-2.51-.1-3.03,1.22-.19,.48,.19,1.18,.39,2.18,1.37-.84,2.26-1.42,3.18-1.95,1.32-.76,2.66-.92,3.77,.33,1.09,1.22,.87,2.56,.07,3.84-1.31,2.08-3.29,2.75-5.58,1.79Z"/>
      <path class="cls-1" d="M205.94,17.47c.56,.05,1.03,.09,1.45,.12,.49,1.01-.91,3.15-2.45,3.87-2.63,1.23-5.77,.15-6.92-2.38-1.17-2.56-.11-5.62,2.34-6.78,2.71-1.28,5.51-.27,6.76,2.5-.47,.22-.95,.45-1.41,.66-1.65-1.98-2.77-2.43-4.32-1.71-1.47,.68-2.18,1.86-2.01,3.49,.16,1.56,1.43,2.83,2.91,3.03,1.59,.21,2.69-.6,3.65-2.8Z"/>
      <path class="cls-1" d="M119.55,131.08v-1.55c2.69,.06,4.4,1.69,4.67,4.35,.26,2.55-1.31,4.79-3.8,5.42-2.57,.65-5.12-.64-6.03-3.06-.95-2.53-.11-4.87,2.31-6.16,.26,.44,.52,.88,.77,1.3-1.88,1.95-2.22,3.16-1.27,4.65,.82,1.29,2.02,1.87,3.56,1.54,1.6-.34,2.77-1.63,2.78-3.13,.01-1.95-1.16-2.93-3.01-3.35Z"/>
      <path class="cls-1" d="M310.71,125.6c.05,.53,.1,1.06,.14,1.55-2.49,1.74-2.7,3.41-.26,4.56,.46-.98,.82-2.03,1.4-2.92,.56-.85,1.21-1.88,2.07-2.24,1.51-.64,2.99,.43,3.37,2.08,.57,2.47-.63,4.56-3.07,5.13-.07-.51-.14-1.01-.21-1.5,.14,.05,.28,.1,.42,.15,.48-.88,1.12-1.72,1.36-2.66,.1-.43-.61-1.06-.96-1.6-.21,.02-.41,.03-.62,.05-.43,.87-.91,1.71-1.28,2.61-.86,2.11-1.94,2.89-3.58,2.48-1.59-.39-2.4-1.94-2.12-4.06,.3-2.27,1.3-3.38,3.32-3.62Z"/>
      <path class="cls-1" d="M120.13,74.53c.28-.62,.47-1.05,.7-1.55h10.5c-.24,.61-.43,1.1-.63,1.61-.77,.04-1.48,.07-2.32,.11-.57,1.31-1.14,2.62-1.73,3.98,.5,.59,.96,1.12,1.5,1.76-.19,.48-.4,1.02-.71,1.81-2.5-2.64-4.87-5.13-7.32-7.71Zm6.44,.15h-3.35c.68,.75,1.44,1.59,2.29,2.53,.32-.75,.63-1.5,1.06-2.53Z"/>
      <path class="cls-1" d="M121.81,118.22c.11,.77,.19,1.29,.27,1.85-.66,.41-1.27,.78-2,1.24,.12,1.39,.24,2.81,.37,4.28,.74,.3,1.4,.56,2.2,.89,.05,.51,.11,1.08,.19,1.86-3.44-1.1-6.69-2.15-10-3.21-.07-.58-.14-1.1-.22-1.79,2.99-1.67,5.98-3.33,9.19-5.11Zm-3.03,6.99c-.12-1.15-.21-2.03-.33-3.15-1.26,.7-2.24,1.24-3.57,1.99,1.53,.46,2.58,.77,3.9,1.17Z"/>
      <path class="cls-1" d="M257.45,203.27c-.23,.25-.42,.45-.61,.66-1.26,1.36-3.09,1.73-4.4,.89-1.26-.81-1.78-2.6-1.16-4.01,.65-1.49,2.62-2.44,4.24-2.05,2.8,.66,4.89,5.35,3.49,7.87-1.05,1.89-3.32,2.36-5.5,.89,.68-.3,1.21-.74,1.74-.73,2.36,.04,3.13-1.08,2.19-3.51Zm-1-.9c0-.24,.01-.49,.02-.73-.66-.44-1.38-1.29-1.97-1.21-.64,.09-1.45,.99-1.59,1.67-.09,.4,.96,1.45,1.52,1.47,.67,.02,1.35-.76,2.03-1.2Z"/>
      <path class="cls-1" d="M161.06,26.56c.57-.38,1.01-.67,1.53-1.02,1.08,1.68,2.2,3.26,3.16,4.92,1.26,2.18,.73,4.47-1.2,5.74-2.02,1.33-4.32,.87-5.9-1.18-.11-.14-.21-.29-.31-.44-.92-1.41-1.84-2.82-2.83-4.33,.43-.33,.84-.65,1.27-.98,.19,.13,.38,.2,.47,.33,.91,1.35,1.77,2.74,2.71,4.06,1.08,1.52,2.32,1.88,3.54,1.11,1.29-.81,1.46-2.12,.43-3.79-.89-1.43-1.83-2.83-2.86-4.42Z"/>
      <path class="cls-1" d="M312.12,78.5c.26,.63,.44,1.06,.6,1.45-.13,.17-.19,.3-.28,.34-1.68,.68-3.33,1.42-5.05,1.99-2.46,.81-4.51-.13-5.36-2.31-.9-2.29-.02-4.44,2.34-5.52,1.42-.65,2.9-1.19,4.36-1.76,.27-.11,.56-.18,.94-.3,.23,.52,.44,.99,.71,1.59-1.65,.66-3.21,1.26-4.76,1.91-1.81,.76-2.51,1.95-2.02,3.3,.53,1.46,1.87,1.89,3.8,1.16,1.52-.57,3.02-1.18,4.73-1.85Z"/>
      <path class="cls-1" d="M124.97,138.66c.27,.71,.45,1.2,.71,1.87-.52,.46-1.05,.94-1.75,1.56,.42,1.26,.87,2.61,1.37,4.11,.69,.11,1.39,.22,2.26,.35,.17,.45,.37,.99,.65,1.74-3.62-.32-7.02-.63-10.47-.94-.22-.55-.42-1.03-.67-1.64,2.58-2.3,5.14-4.58,7.91-7.04Zm-1.43,7.53c-.38-1.14-.66-1.98-1.01-3.01-1.08,.91-1.92,1.62-3.14,2.65,1.55,.13,2.63,.23,4.15,.36Z"/>
      <path class="cls-1" d="M317.72,101.39c.12,.67,.2,1.12,.32,1.76-2.14,.3-4.14,.7-6.15,.83-2.44,.16-4.04-1.28-4.35-3.63-.3-2.28,.93-4.11,3.3-4.63,1.87-.41,3.78-.62,5.81-.94,.15,.56,.27,1.05,.4,1.55-.25,.14-.39,.27-.56,.3-1.6,.26-3.22,.45-4.81,.77-1.76,.35-2.66,1.45-2.45,2.79,.23,1.42,1.52,2.19,3.33,1.95,1.66-.22,3.32-.48,5.15-.75Z"/>
      <path class="cls-1" d="M223.91,217.03c-.69,.04-1.21,.08-1.78,.11-.38-.65-.73-1.26-1.09-1.88h-4.27c-.31,.67-.61,1.31-.97,2.09-.5,.02-1.07,.05-1.84,.09,1.28-3.31,2.49-6.42,3.73-9.62,.56-.05,1.08-.09,1.74-.15,1.48,3.08,2.95,6.15,4.48,9.35Zm-5.24-7.24c-.58,1.54-.97,2.57-1.46,3.89,1.14-.06,1.99-.11,3.1-.17-.53-1.21-.98-2.21-1.64-3.72Z"/>
      <path class="cls-1" d="M200.66,206.63c.6,.12,1.12,.22,1.71,.33,.86,3.27,1.7,6.51,2.6,9.96-.69-.09-1.19-.16-1.77-.24-.22-.69-.44-1.36-.7-2.18-1.38-.22-2.79-.44-4.21-.67-.43,.6-.82,1.13-1.29,1.8-.49-.04-1.05-.08-1.92-.15,1.93-3.07,3.74-5.94,5.58-8.86Zm-1.59,5.69c1.12,.17,1.96,.3,3.08,.48-.32-1.37-.57-2.45-.93-3.99-.84,1.38-1.39,2.28-2.15,3.52Z"/>
      <path class="cls-1" d="M266.34,199.94c.37-.39,.66-.69,1.02-1.07,1.22,.69,2.51,.94,3.2-.54,.25-.52-.21-1.37-.4-2.33-1.11,.49-1.75,.77-2.49,1.09-.2-.23-.42-.5-.67-.8,.51-.61,.99-1.18,1.43-1.7-.89-2.02-1.67-2.06-3.16-.23,.03,.39,.08,.86,.13,1.43-.38,.18-.79,.39-1.63,.8,0-1.08-.14-1.89,.03-2.63,.37-1.58,2.18-2.74,3.73-2.51,1.49,.22,2.3,1.31,2.44,3.38,1.45,.33,2.46,1.18,2.47,2.8,0,1.5-.91,2.46-2.17,3.07-1.37,.65-2.68,.56-3.92-.75Z"/>
      <path class="cls-1" d="M161.15,189.54c1.94,1.38,3.8,2.7,5.76,4.09-.33,.47-.62,.87-.94,1.32-1.46-1.04-2.82-1.99-4.3-3.04-.52,.73-.96,1.34-1.48,2.07,1.32,.95,2.52,1.82,3.82,2.76-.36,.48-.62,.83-.96,1.27-1.31-.92-2.52-1.77-3.81-2.67-.77,1.04-1.44,1.95-2.19,2.96-.47-.28-.91-.54-1.53-.91,1.89-2.65,3.71-5.22,5.6-7.87Z"/>
      <path class="cls-1" d="M153.61,31.51c.38,.46,.67,.8,1.03,1.23-.83,.72-1.59,1.38-2.48,2.15,1.68,2.08,3.33,4.12,5.06,6.25-.44,.38-.83,.71-1.37,1.17-1.71-2.07-3.38-4.09-5.16-6.25-.84,.66-1.62,1.27-2.54,1.99-.35-.39-.68-.77-1.08-1.22,2.17-1.77,4.27-3.47,6.54-5.32Z"/>
      <path class="cls-1" d="M314.82,135.69c.52,.16,.91,.27,1.47,.44-.7,2.69-1.39,5.34-2.11,8.11-.57-.17-1-.3-1.49-.45,.23-1.04,.44-1.97,.7-3.12-2.57-.69-5.1-1.37-7.76-2.09,.14-.57,.26-1.06,.43-1.7,2.6,.65,5.09,1.28,7.76,1.95,.32-1.02,.62-1.97,.99-3.15Z"/>
      <path class="cls-1" d="M210.29,217.25c-.63-.06-1.08-.11-1.68-.17,.12-2.62,.23-5.17,.36-7.85-1.11-.11-2.05-.2-3.1-.31,.02-.5,.04-.94,.07-1.49,2.75,.15,5.38,.3,8.07,.45v1.48h-3.2c-.18,2.68-.35,5.23-.53,7.9Z"/>
      <path class="cls-1" d="M245.12,204.41c1.03-1.13,1.93-2.12,3.12-3.41,1.29,3.3,2.41,6.17,3.59,9.18-.47,.24-.92,.47-1.54,.78-.9-2.31-1.76-4.52-2.8-7.16-.56,.87-.94,1.47-1.48,2.31-.41-.79-.61-1.17-.89-1.7Z"/>
      <path class="cls-1" d="M258.98,199.92c-.26-.51-.47-.9-.73-1.4,.78-1.17,1.55-2.32,2.51-3.76,1.8,3.1,3.36,5.79,4.97,8.55-.48,.32-.86,.57-1.41,.94-1.25-2.1-2.46-4.13-3.77-6.34-.56,.71-1.01,1.29-1.58,2.01Z"/>
      <path class="cls-1" d="M259.38,20.97c.64,.34,1.05,.56,1.6,.86-1.41,2.91-2.8,5.77-4.22,8.7-.55-.26-1.03-.49-1.64-.78,1.42-2.92,2.8-5.77,4.26-8.78Z"/>
      <path class="cls-1" d="M294.05,47.55c-2.47,2.14-4.83,4.19-7.32,6.35-.42-.46-.81-.87-1.26-1.35,2.48-2.15,4.84-4.2,7.33-6.35,.41,.44,.78,.85,1.25,1.36Z"/>
      <path class="cls-1" d="M127.2,83.36c-.23,.63-.39,1.07-.62,1.7-3.06-1.04-6.05-2.05-9.16-3.1,.18-.59,.33-1.07,.54-1.74,3.07,1.04,6.06,2.06,9.24,3.14Z"/>
      <path class="cls-1" d="M180.83,27.51c-.64,.24-1.12,.42-1.71,.64-1.22-2.98-2.41-5.86-3.64-8.86,.48-.25,.94-.48,1.6-.83,1.25,3.02,2.45,5.93,3.74,9.06Z"/>
      <path class="cls-1" d="M179.52,17.6c.62-.24,1.06-.41,1.68-.65,1.09,3.02,2.17,5.98,3.29,9.08-.51,.22-.97,.43-1.65,.73-1.11-3.07-2.18-6.03-3.32-9.16Z"/>
      <path class="cls-1" d="M303.67,144.77c.26-.64,.46-1.11,.69-1.68,3.05,1.02,5.99,2,9.1,3.04-.19,.6-.36,1.13-.55,1.73-3.09-1.03-6.04-2.01-9.24-3.08Z"/>
      <path class="cls-1" d="M229.52,216.33c-.5-3.22-.97-6.22-1.46-9.34,.57-.13,1.06-.24,1.71-.38,.5,3.19,.98,6.24,1.47,9.37-.59,.12-1.05,.22-1.71,.35Z"/>
      <path class="cls-1" d="M220.95,205.33c-.68,.48-1.3,1.18-2.06,1.37-1.19,.31-2.24-.11-2.9-2.01,1.07,.36,1.78,.6,2.53,.85,.62-.28,1.31-.6,2-.91,.14,.23,.29,.46,.43,.69Z"/>
      <path class="cls-1" d="M228.56,205.22c-.47,.23-1.11,.53-1.74,.84-.08-.1-.15-.19-.23-.29,.31-.61,.63-1.21,.97-1.87,.61-.1,1.18-.18,1.75-.27,.54,.48,1.02,.92,1.5,1.35-.02,.13-.04,.26-.06,.39-.69-.05-1.38-.09-2.19-.15Z"/>
      <path class="cls-1" d="M305.3,127.16c.51,.29,1.02,.57,1.58,.9-.14,.57-.26,1.07-.48,1.98-.7-1.02-1.2-1.76-1.7-2.49,.2-.13,.39-.26,.59-.39Z"/>
      <path class="cls-1" d="M173.96,112.02h19.79c2.22,1.75,4.24,3.33,6.45,5.07h-26.27c-.25,5.35,.66,10.23,3.14,14.96-.76,4.2-1.54,8.52-2.32,12.84-.17,.11-.34,.21-.51,.32-1.98-2.21-4.17-4.27-5.91-6.66-4.21-5.74-5.75-12.43-6.15-19.4-.6-10.54,1.21-20.48,7.95-29,5.63-7.12,13.32-10.98,21.88-13.34,9.95-2.75,20.11-3.24,30.35-2.67,.17,0,.34,.09,.65,.19,.38,1.96,.76,3.96,1.2,6.24-1.54-.09-2.95-.19-4.36-.25-8.7-.4-17.28,.27-25.47,3.49-11.41,4.49-18.53,12.53-20.29,24.9-.1,.72-.16,1.44-.21,2.16-.02,.29,.03,.59,.07,1.16Z"/>
      <path class="cls-1" d="M188.89,140.37c.28-3.03,.56-6.01,.9-9.6,.69,.82,1.17,1.2,1.39,1.7,3.91,8.78,17.2,12.91,25.31,7.78,3.89-2.46,5.8-6.08,5.61-10.68-.2-4.7-2.39-8.2-6.8-10.02-2.39-.99-4.91-1.65-7.36-2.51-2.1-.73-4.27-1.36-6.27-2.33-9.7-4.73-12.16-15.12-5.72-23.84,2.28-3.08,5.37-5,8.97-6.11,6.41-1.99,12.96-1.86,19.65-1.18,.53,2.53,1.05,4.99,1.68,8.02-.93-.47-1.55-.66-2.02-1.04-5.63-4.55-15.24-4.76-20.99-.37-1,.76-1.93,1.67-2.69,2.66-3.66,4.79-2.69,10.72,2.57,13.63,2.68,1.49,5.85,2.13,8.83,3.05,3.68,1.13,7.57,1.75,11.06,3.29,10.17,4.48,11.79,13.97,10.1,21.47-1.2,5.31-4.68,8.74-9.68,10.66-6.53,2.5-13.25,2.33-20,1.23-5.25-.86-10.09-2.76-14.56-5.81Z"/>
      <path class="cls-1" d="M193.72,68.03c-.26,2.05-.46,3.72-.68,5.45-1.77,.53-3.49,1.04-5.47,1.63,.36-3.6,.71-7.04,1.07-10.66,15.6-5.69,31.22-11.39,47.18-17.21,0,.93,.23,1.72-.04,2.28-1.71,3.7-1.08,7.43-.39,11.19,2.9,15.84,5.78,31.69,8.67,47.53,.04,.23,.04,.47,.06,.79h-11.66c-2.67-17.01-7.04-33.72-8.83-51.2-9.89,3.37-19.95,6.81-29.91,10.21Z"/>
      <path class="cls-1" d="M257.38,130.72c.56-.24,1-.42,1.63-.68,1.98,4.08,3.94,8.12,6.03,12.45-2.34,1.47-4.54,3.05-6.92,4.3-9.52,5-19.78,7.65-30.4,8.83-12.21,1.36-24.33,.99-36.25-2.34-1.22-.34-2.41-.75-3.85-1.2,.27-2.75,.54-5.47,.83-8.4,6.04,3.47,12.41,5.22,19.07,5.89,11.05,1.11,21.94,.42,32.46-3.48,5.09-1.89,9.68-4.62,13.56-8.46,1.91-1.9,3.47-4.02,3.86-6.91Z"/>
      <path class="cls-1" d="M182.13,120.13h5.75c-1.75,15.74-3.49,31.46-5.26,47.35h-13.17v-2.25c5.3-3.86,6.75-9.82,7.78-15.98,1.56-9.34,3.11-18.68,4.67-28.02,.06-.35,.14-.69,.22-1.1Z"/>
      <path class="cls-1" d="M246.24,120.16c1.07,5.86,2.11,11.6,3.23,17.72-3.32,1.87-6.65,3.74-10.36,5.83-1.53-8.12-2.98-15.77-4.45-23.55h11.58Z"/>
      <path class="cls-1" d="M241.52,77.39c8.6,2.45,16.42,5.85,23.45,11.37-1.85,3.62-3.68,7.19-5.57,10.89-.57-.25-1.09-.48-1.5-.66-2.02-7.84-8.54-10.58-14.9-13.67-.47-2.51-.95-5.09-1.48-7.93Z"/>
      <path class="cls-1" d="M243.55,167.39c-.71-3.74-1.4-7.41-2.11-11.18,3.57-1.14,7.1-2.26,10.83-3.45,1.83,5.26,5.22,9.43,10,12.43v2.2h-18.73Z"/>
      <path class="cls-1" d="M232.44,117.12c-1.87-1.77-3.52-3.33-5.31-5.02,.58-.03,1.08-.07,1.58-.07,6.76,0,13.52,0,20.27,0,3.1,0,6.19-.05,8.55-2.57,.15-.16,.55-.08,.97-.13v10.49c-.44-.09-.96-.03-1.16-.25-1.92-2.18-4.51-2.41-7.13-2.42-5.97-.04-11.94-.01-17.78-.01Z"/>
      <path class="cls-1" d="M191.4,88.66c-.75,6.75-1.51,13.5-2.27,20.34h-5.52c.67-5.55,1.33-11.08,2.04-16.91,1.71-1.19,3.55-2.48,5.4-3.77,.12,.11,.24,.22,.36,.33Z"/>
    </g>
  </g>
</svg>